<svg version="1.0" xmlns="http://www.w3.org/2000/svg" width="762.667" height="762.667" viewBox="0 0 572 572"><path d="M187.9 28.4c-.2.2-5.7.7-12.1 1-6.5.4-12.8.9-14 1.1-1.3.2-5.4.6-9.3 1-3.8.3-7.7.8-8.5 1-.8.2-3.7.6-6.5 1-2.7.3-5.9.8-7 1-1.1.3-3.1.7-4.5.9-6.4 1.1-22.3 4.9-30 7.3C46.4 57.6 15.7 85.1 6 123c-3.1 12-3.5 16.4-3.4 34.5.1 16.7 1.2 25.2 5.9 45 1.7 7.2 9.8 32.5 11.5 36 .5 1.1 2.3 5.6 4.1 10 5.9 15.4 23.6 51 31.6 63.7 1.3 2.1 2.3 4 2.3 4.3 0 .3 2.9 5.3 6.5 11.1 3.6 5.9 6.5 10.8 6.5 11.1 0 .8 31.3 47.8 35.6 53.6 2.4 3.1 4.4 5.9 4.4 6.2 0 1.3 28.1 36.8 37.5 47.4 28.8 32.6 56.1 56.6 82.5 72.5 10.1 6.1 27.1 14.6 29.3 14.6.7 0 1.7.4 2.3.9 1.3 1.3 17.4 6.1 25.4 7.5 1.9.3 4.6.9 6 1.2 1.4.3 9 .7 17 .9 18.8.4 33.2-2.1 51.5-8.8 4.1-1.5 19.4-8.8 23-11 8.4-5.1 21.2-14 27.5-19.1 14.7-11.8 41.1-39.6 52.5-55.1 1.7-2.2 3.3-4.2 3.6-4.5.3-.3 4.6-6.2 9.5-13.2C507 391.2 533 343.7 547.5 306c8.7-22.5 16.4-50.4 18.1-65.5.3-3.3.9-6.4 1.2-6.9 1.2-2 .9-34.6-.3-44.6-2.3-17.1-7.9-34.4-15.5-47.4-2.2-3.7-4-7-4-7.3 0-.2-2.8-4.1-6.2-8.5-32.9-43.3-91.7-70.9-184.8-86.9-3-.5-7.5-1.1-10-1.5-2.5-.3-7-.9-10-1.4-3-.5-8.6-1.1-12.5-1.5-3.8-.3-7.7-.8-8.5-1-2.4-.6-17.6-1.9-35.5-3-5.5-.4-11.8-.9-14-1.1-4.6-.5-77.1-1.4-77.6-1z"/></svg>