<?xml version="1.0" standalone="no"?>
<!DOCTYPE svg PUBLIC "-//W3C//DTD SVG 20010904//EN"
 "http://www.w3.org/TR/2001/REC-SVG-20010904/DTD/svg10.dtd">
<svg version="1.0" xmlns="http://www.w3.org/2000/svg"
 width="572.000000pt" height="572.000000pt" viewBox="0 0 572.000000 572.000000"
 preserveAspectRatio="xMidYMid meet">
<metadata>
Created by potrace 1.11, written by Peter Selinger 2001-2013
</metadata>
<g transform="translate(0.000000,572.000000) scale(0.100000,-0.100000)"
fill="#000000" stroke="none">
<path d="M1879 5436 c-2 -2 -57 -7 -121 -10 -65 -4 -128 -9 -140 -11 -13 -2
-54 -6 -93 -10 -38 -3 -77 -8 -85 -10 -8 -2 -37 -6 -65 -10 -27 -3 -59 -8 -70
-10 -11 -3 -31 -7 -45 -9 -64 -11 -223 -49 -300 -73 -496 -149 -803 -424 -900
-803 -31 -120 -35 -164 -34 -345 1 -167 12 -252 59 -450 17 -72 98 -325 115
-360 5 -11 23 -56 41 -100 59 -154 236 -510 316 -637 13 -21 23 -40 23 -43 0
-3 29 -53 65 -111 36 -59 65 -108 65 -111 0 -8 313 -478 356 -536 24 -31 44
-59 44 -62 0 -13 281 -368 375 -474 288 -326 561 -566 825 -725 101 -61 271
-146 293 -146 7 0 17 -4 23 -9 13 -13 174 -61 254 -75 19 -3 46 -9 60 -12 14
-3 90 -7 170 -9 188 -4 332 21 515 88 41 15 194 88 230 110 84 51 212 140 275
191 147 118 411 396 525 551 17 22 33 42 36 45 3 3 46 62 95 132 284 406 544
881 689 1258 87 225 164 504 181 655 3 33 9 64 12 69 12 20 9 346 -3 446 -23
171 -79 344 -155 474 -22 37 -40 70 -40 73 0 2 -28 41 -62 85 -329 433 -917
709 -1848 869 -30 5 -75 11 -100 15 -25 3 -70 9 -100 14 -30 5 -86 11 -125 15
-38 3 -77 8 -85 10 -24 6 -176 19 -355 30 -55 4 -118 9 -140 11 -46 5 -771 14
-776 10z"/>
</g>
</svg>
